<mxfile host="app.diagrams.net" agent="Mozilla/5.0 (Windows NT 10.0; Win64; x64) AppleWebKit/537.36 (KHTML, like Gecko) Chrome/130.0.0.0 Safari/537.36" version="25.0.3">
  <diagram id="C5RBs43oDa-KdzZeNtuy" name="Page-1">
    <mxGraphModel grid="1" page="1" gridSize="10" guides="1" tooltips="1" connect="1" arrows="1" fold="1" pageScale="1" pageWidth="827" pageHeight="1169" math="0" shadow="0">
      <root>
        <mxCell id="WIyWlLk6GJQsqaUBKTNV-0" />
        <mxCell id="WIyWlLk6GJQsqaUBKTNV-1" parent="WIyWlLk6GJQsqaUBKTNV-0" />
        <mxCell id="T-g5_C82tU-3aWgjRtSM-3" value="" style="edgeStyle=orthogonalEdgeStyle;rounded=0;orthogonalLoop=1;jettySize=auto;html=1;" edge="1" parent="WIyWlLk6GJQsqaUBKTNV-1" source="T-g5_C82tU-3aWgjRtSM-0" target="T-g5_C82tU-3aWgjRtSM-2">
          <mxGeometry relative="1" as="geometry" />
        </mxCell>
        <mxCell id="T-g5_C82tU-3aWgjRtSM-0" value="" style="ellipse;whiteSpace=wrap;html=1;" vertex="1" parent="WIyWlLk6GJQsqaUBKTNV-1">
          <mxGeometry x="260" y="60" width="120" height="80" as="geometry" />
        </mxCell>
        <mxCell id="T-g5_C82tU-3aWgjRtSM-1" value="start" style="text;html=1;align=center;verticalAlign=middle;whiteSpace=wrap;rounded=0;" vertex="1" parent="WIyWlLk6GJQsqaUBKTNV-1">
          <mxGeometry x="290" y="85" width="60" height="30" as="geometry" />
        </mxCell>
        <mxCell id="nvoxUFms630-VTguPLp4-20" style="edgeStyle=orthogonalEdgeStyle;rounded=0;orthogonalLoop=1;jettySize=auto;html=1;exitX=0.5;exitY=1;exitDx=0;exitDy=0;entryX=0.5;entryY=0;entryDx=0;entryDy=0;" edge="1" parent="WIyWlLk6GJQsqaUBKTNV-1" source="T-g5_C82tU-3aWgjRtSM-2" target="nvoxUFms630-VTguPLp4-2">
          <mxGeometry relative="1" as="geometry" />
        </mxCell>
        <mxCell id="T-g5_C82tU-3aWgjRtSM-2" value="" style="shape=parallelogram;perimeter=parallelogramPerimeter;whiteSpace=wrap;html=1;fixedSize=1;" vertex="1" parent="WIyWlLk6GJQsqaUBKTNV-1">
          <mxGeometry x="260" y="170" width="120" height="60" as="geometry" />
        </mxCell>
        <mxCell id="T-g5_C82tU-3aWgjRtSM-5" value="input n" style="text;html=1;align=center;verticalAlign=middle;whiteSpace=wrap;rounded=0;" vertex="1" parent="WIyWlLk6GJQsqaUBKTNV-1">
          <mxGeometry x="290" y="185" width="60" height="30" as="geometry" />
        </mxCell>
        <mxCell id="T-g5_C82tU-3aWgjRtSM-10" value="" style="edgeStyle=orthogonalEdgeStyle;rounded=0;orthogonalLoop=1;jettySize=auto;html=1;" edge="1" parent="WIyWlLk6GJQsqaUBKTNV-1" source="T-g5_C82tU-3aWgjRtSM-6" target="T-g5_C82tU-3aWgjRtSM-9">
          <mxGeometry relative="1" as="geometry" />
        </mxCell>
        <mxCell id="nvoxUFms630-VTguPLp4-21" style="edgeStyle=orthogonalEdgeStyle;rounded=0;orthogonalLoop=1;jettySize=auto;html=1;exitX=0.5;exitY=1;exitDx=0;exitDy=0;" edge="1" parent="WIyWlLk6GJQsqaUBKTNV-1" source="T-g5_C82tU-3aWgjRtSM-6">
          <mxGeometry relative="1" as="geometry">
            <mxPoint x="319.52941176470586" y="659.9999999999998" as="targetPoint" />
          </mxGeometry>
        </mxCell>
        <mxCell id="T-g5_C82tU-3aWgjRtSM-6" value="" style="rhombus;whiteSpace=wrap;html=1;" vertex="1" parent="WIyWlLk6GJQsqaUBKTNV-1">
          <mxGeometry x="240" y="530" width="160" height="80" as="geometry" />
        </mxCell>
        <mxCell id="T-g5_C82tU-3aWgjRtSM-8" value="n mod i==0" style="text;html=1;align=center;verticalAlign=middle;whiteSpace=wrap;rounded=0;" vertex="1" parent="WIyWlLk6GJQsqaUBKTNV-1">
          <mxGeometry x="280" y="555" width="80" height="30" as="geometry" />
        </mxCell>
        <mxCell id="nvoxUFms630-VTguPLp4-23" style="edgeStyle=orthogonalEdgeStyle;rounded=0;orthogonalLoop=1;jettySize=auto;html=1;exitX=0.5;exitY=1;exitDx=0;exitDy=0;entryX=1;entryY=0.5;entryDx=0;entryDy=0;" edge="1" parent="WIyWlLk6GJQsqaUBKTNV-1" source="T-g5_C82tU-3aWgjRtSM-9" target="nvoxUFms630-VTguPLp4-8">
          <mxGeometry relative="1" as="geometry" />
        </mxCell>
        <mxCell id="T-g5_C82tU-3aWgjRtSM-9" value="" style="rounded=1;whiteSpace=wrap;html=1;" vertex="1" parent="WIyWlLk6GJQsqaUBKTNV-1">
          <mxGeometry x="580" y="540" width="120" height="60" as="geometry" />
        </mxCell>
        <mxCell id="T-g5_C82tU-3aWgjRtSM-11" value="output i" style="text;html=1;align=center;verticalAlign=middle;whiteSpace=wrap;rounded=0;" vertex="1" parent="WIyWlLk6GJQsqaUBKTNV-1">
          <mxGeometry x="610" y="555" width="60" height="30" as="geometry" />
        </mxCell>
        <mxCell id="nvoxUFms630-VTguPLp4-19" style="edgeStyle=orthogonalEdgeStyle;rounded=0;orthogonalLoop=1;jettySize=auto;html=1;exitX=0.5;exitY=1;exitDx=0;exitDy=0;entryX=0.5;entryY=0;entryDx=0;entryDy=0;" edge="1" parent="WIyWlLk6GJQsqaUBKTNV-1" source="nvoxUFms630-VTguPLp4-0" target="T-g5_C82tU-3aWgjRtSM-6">
          <mxGeometry relative="1" as="geometry" />
        </mxCell>
        <mxCell id="nvoxUFms630-VTguPLp4-0" value="" style="rounded=0;whiteSpace=wrap;html=1;" vertex="1" parent="WIyWlLk6GJQsqaUBKTNV-1">
          <mxGeometry x="260" y="395" width="120" height="60" as="geometry" />
        </mxCell>
        <mxCell id="nvoxUFms630-VTguPLp4-1" value="i=1" style="text;html=1;align=center;verticalAlign=middle;whiteSpace=wrap;rounded=0;" vertex="1" parent="WIyWlLk6GJQsqaUBKTNV-1">
          <mxGeometry x="290" y="410" width="60" height="30" as="geometry" />
        </mxCell>
        <mxCell id="nvoxUFms630-VTguPLp4-7" value="" style="edgeStyle=orthogonalEdgeStyle;rounded=0;orthogonalLoop=1;jettySize=auto;html=1;" edge="1" parent="WIyWlLk6GJQsqaUBKTNV-1" source="nvoxUFms630-VTguPLp4-2">
          <mxGeometry relative="1" as="geometry">
            <mxPoint x="320" y="390" as="targetPoint" />
          </mxGeometry>
        </mxCell>
        <mxCell id="nvoxUFms630-VTguPLp4-2" value="" style="rhombus;whiteSpace=wrap;html=1;" vertex="1" parent="WIyWlLk6GJQsqaUBKTNV-1">
          <mxGeometry x="280" y="270" width="80" height="80" as="geometry" />
        </mxCell>
        <mxCell id="nvoxUFms630-VTguPLp4-4" value="n&amp;gt;0" style="text;html=1;align=center;verticalAlign=middle;whiteSpace=wrap;rounded=0;" vertex="1" parent="WIyWlLk6GJQsqaUBKTNV-1">
          <mxGeometry x="290" y="295" width="60" height="30" as="geometry" />
        </mxCell>
        <mxCell id="nvoxUFms630-VTguPLp4-26" style="edgeStyle=orthogonalEdgeStyle;rounded=0;orthogonalLoop=1;jettySize=auto;html=1;exitX=0;exitY=0.5;exitDx=0;exitDy=0;entryX=0.5;entryY=1;entryDx=0;entryDy=0;" edge="1" parent="WIyWlLk6GJQsqaUBKTNV-1" source="nvoxUFms630-VTguPLp4-8" target="nvoxUFms630-VTguPLp4-25">
          <mxGeometry relative="1" as="geometry" />
        </mxCell>
        <mxCell id="nvoxUFms630-VTguPLp4-8" value="" style="rounded=0;whiteSpace=wrap;html=1;" vertex="1" parent="WIyWlLk6GJQsqaUBKTNV-1">
          <mxGeometry x="260" y="665" width="120" height="60" as="geometry" />
        </mxCell>
        <mxCell id="nvoxUFms630-VTguPLp4-9" value="i=i+1" style="text;html=1;align=center;verticalAlign=middle;whiteSpace=wrap;rounded=0;" vertex="1" parent="WIyWlLk6GJQsqaUBKTNV-1">
          <mxGeometry x="290" y="680" width="60" height="30" as="geometry" />
        </mxCell>
        <mxCell id="nvoxUFms630-VTguPLp4-22" value="true" style="text;html=1;align=center;verticalAlign=middle;whiteSpace=wrap;rounded=0;" vertex="1" parent="WIyWlLk6GJQsqaUBKTNV-1">
          <mxGeometry x="470" y="530" width="60" height="30" as="geometry" />
        </mxCell>
        <mxCell id="nvoxUFms630-VTguPLp4-24" value="false" style="text;html=1;align=center;verticalAlign=middle;whiteSpace=wrap;rounded=0;" vertex="1" parent="WIyWlLk6GJQsqaUBKTNV-1">
          <mxGeometry x="330" y="610" width="60" height="30" as="geometry" />
        </mxCell>
        <mxCell id="nvoxUFms630-VTguPLp4-28" style="edgeStyle=orthogonalEdgeStyle;rounded=0;orthogonalLoop=1;jettySize=auto;html=1;exitX=0.5;exitY=0;exitDx=0;exitDy=0;" edge="1" parent="WIyWlLk6GJQsqaUBKTNV-1" source="nvoxUFms630-VTguPLp4-25" target="T-g5_C82tU-3aWgjRtSM-6">
          <mxGeometry relative="1" as="geometry" />
        </mxCell>
        <mxCell id="nvoxUFms630-VTguPLp4-33" style="edgeStyle=orthogonalEdgeStyle;rounded=0;orthogonalLoop=1;jettySize=auto;html=1;exitX=0;exitY=0.5;exitDx=0;exitDy=0;entryX=0;entryY=0.5;entryDx=0;entryDy=0;" edge="1" parent="WIyWlLk6GJQsqaUBKTNV-1" source="nvoxUFms630-VTguPLp4-25" target="nvoxUFms630-VTguPLp4-31">
          <mxGeometry relative="1" as="geometry" />
        </mxCell>
        <mxCell id="nvoxUFms630-VTguPLp4-25" value="" style="rhombus;whiteSpace=wrap;html=1;" vertex="1" parent="WIyWlLk6GJQsqaUBKTNV-1">
          <mxGeometry x="60" y="600" width="80" height="80" as="geometry" />
        </mxCell>
        <mxCell id="nvoxUFms630-VTguPLp4-27" value="i&amp;lt;=n" style="text;html=1;align=center;verticalAlign=middle;whiteSpace=wrap;rounded=0;" vertex="1" parent="WIyWlLk6GJQsqaUBKTNV-1">
          <mxGeometry x="70" y="625" width="60" height="30" as="geometry" />
        </mxCell>
        <mxCell id="nvoxUFms630-VTguPLp4-29" value="true" style="text;html=1;align=center;verticalAlign=middle;whiteSpace=wrap;rounded=0;" vertex="1" parent="WIyWlLk6GJQsqaUBKTNV-1">
          <mxGeometry x="130" y="540" width="60" height="30" as="geometry" />
        </mxCell>
        <mxCell id="nvoxUFms630-VTguPLp4-31" value="" style="ellipse;whiteSpace=wrap;html=1;" vertex="1" parent="WIyWlLk6GJQsqaUBKTNV-1">
          <mxGeometry x="260" y="760" width="120" height="80" as="geometry" />
        </mxCell>
        <mxCell id="nvoxUFms630-VTguPLp4-34" value="end" style="text;html=1;align=center;verticalAlign=middle;whiteSpace=wrap;rounded=0;" vertex="1" parent="WIyWlLk6GJQsqaUBKTNV-1">
          <mxGeometry x="290" y="785" width="60" height="30" as="geometry" />
        </mxCell>
        <mxCell id="nvoxUFms630-VTguPLp4-35" value="false" style="text;html=1;align=center;verticalAlign=middle;whiteSpace=wrap;rounded=0;" vertex="1" parent="WIyWlLk6GJQsqaUBKTNV-1">
          <mxGeometry x="40" y="740" width="60" height="30" as="geometry" />
        </mxCell>
      </root>
    </mxGraphModel>
  </diagram>
</mxfile>
